<svg width="216" height="191" viewBox="0 0 216 191" fill="none" xmlns="http://www.w3.org/2000/svg">
<path d="M157.336 78.779C155.85 67.8272 158.895 42.4815 182.952 28.7147C202.516 17.5177 206.317 8.51847 205.497 3.66467C205.111 2.74812 204.723 1.85865 204.335 1C204.877 1.65415 205.308 2.54978 205.497 3.66467C216.862 30.6747 226.548 81.8761 181.393 90.1768H162.236L157.336 78.779Z" fill="#83F12C"/>
<path d="M159.458 76.2272C159.089 66.5373 163.742 43.7839 185.3 30.2912C206.857 16.7996 209.007 5.14165 207.388 1C218.726 26.815 225.94 80.3102 164.096 87.7666C173.814 75.1912 193.781 48.3549 195.902 41.6092" stroke="#06870B" stroke-width="0.362846"/>
<path d="M37.3628 191C30.393 191 24.0516 189.632 18.3386 186.896C12.7399 184.046 8.28381 179.714 4.97028 173.9C1.65676 168.087 0 160.677 0 151.671C0 143.235 1.71389 135.939 5.14167 129.784C8.56946 123.628 13.0827 118.897 18.6814 115.591C24.2801 112.171 30.2216 110.461 36.5059 110.461C43.9327 110.461 49.5315 111.715 53.302 114.223C57.1868 116.617 60.3861 119.296 62.8998 122.26L61.8715 125.167L64.0995 114.223H86.3801V188.948H62.3856V172.703L64.2709 177.833C64.0424 177.833 63.3568 178.517 62.2143 179.885C61.0717 181.139 59.3578 182.678 57.0726 184.502C54.9017 186.212 52.1594 187.694 48.8459 188.948C45.6466 190.316 41.8189 191 37.3628 191ZM44.2184 171.507C47.0749 171.507 49.6457 171.108 51.9309 170.31C54.2161 169.398 56.2156 168.144 57.9295 166.548C59.6434 164.838 61.1288 162.729 62.3856 160.221V141.924C61.4716 139.416 60.1004 137.307 58.2723 135.597C56.4441 133.773 54.2732 132.406 51.7595 131.494C49.2458 130.468 46.4465 129.955 43.3614 129.955C39.9337 129.955 36.7344 130.867 33.7637 132.691C30.9072 134.4 28.622 136.794 26.9081 139.872C25.1942 142.95 24.3373 146.484 24.3373 150.474C24.3373 154.464 25.2513 158.055 27.0795 161.247C28.9076 164.439 31.3071 166.947 34.2778 168.771C37.3628 170.595 40.6763 171.507 44.2184 171.507Z" fill="white"/>
<path d="M134.07 191C127.101 191 120.759 189.632 115.046 186.896C109.448 184.046 104.991 179.714 101.678 173.9C98.3644 168.087 96.7076 160.677 96.7076 151.671C96.7076 143.235 98.4215 135.939 101.849 129.784C105.277 123.628 109.79 118.897 115.389 115.591C120.988 112.171 126.929 110.461 133.214 110.461C140.64 110.461 146.239 111.715 150.01 114.223C153.894 116.617 157.094 119.296 159.607 122.26L158.579 125.167L160.807 114.223H183.088V188.948H159.093V172.703L160.979 177.833C160.75 177.833 160.064 178.517 158.922 179.885C157.779 181.139 156.065 182.678 153.78 184.502C151.609 186.212 148.867 187.694 145.554 188.948C142.354 190.316 138.527 191 134.07 191ZM140.926 171.507C143.783 171.507 146.353 171.108 148.639 170.31C150.924 169.398 152.923 168.144 154.637 166.548C156.351 164.838 157.836 162.729 159.093 160.221V141.924C158.179 139.416 156.808 137.307 154.98 135.597C153.152 133.773 150.981 132.406 148.467 131.494C145.953 130.468 143.154 129.955 140.069 129.955C136.641 129.955 133.442 130.867 130.471 132.691C127.615 134.4 125.33 136.794 123.616 139.872C121.902 142.95 121.045 146.484 121.045 150.474C121.045 154.464 121.959 158.055 123.787 161.247C125.615 164.439 128.015 166.947 130.985 168.771C134.07 170.595 137.384 171.507 140.926 171.507Z" fill="white"/>
</svg>
